<?xml version="1.0" encoding="utf-8"?>
<!-- Generator: Adobe Illustrator 16.0.2, SVG Export Plug-In . SVG Version: 6.00 Build 0)  -->
<!DOCTYPE svg PUBLIC "-//W3C//DTD SVG 1.1//EN" "http://www.w3.org/Graphics/SVG/1.1/DTD/svg11.dtd">
<svg version="1.1" id="Слой_1" xmlns="http://www.w3.org/2000/svg" xmlns:xlink="http://www.w3.org/1999/xlink" x="0px" y="0px"
	 width="800px" height="800px" viewBox="0 0 800 800" enable-background="new 0 0 800 800" xml:space="preserve">
<g>
	<g>
		<polygon fill="#A5A4A4" points="743.235,212.69 743.386,212.691 743.536,212.69 		"/>
		<path fill="#A5A4A4" d="M753.762,240.478c-6.131-10.041-9.902-27.781-9.902-27.781l-0.474-0.006l-0.496,0.006
			c0,0-3.749,17.74-9.88,27.781c-0.428,0.7-1.044,2.302-0.607,2.731c3.475,3.419,7.282,14.791,7.282,14.791h7.402
			c0,0,3.808-11.372,7.282-14.791C754.806,242.779,754.189,241.177,753.762,240.478z"/>
	</g>
	<path fill="#A5A4A4" d="M748.408,260.671c0-0.771-0.581-1.403-1.292-1.403h-7.779c-0.71,0-1.292,0.632-1.292,1.403v0.526h-0.001
		V587.31h10.337l0.027-325.996V260.671z"/>
	<ellipse fill="#A5A4A4" cx="743.227" cy="258.44" rx="4.24" ry="2.887"/>
	<g>
		<polygon fill="#A5A4A4" points="56.464,212.69 56.615,212.691 56.765,212.69 		"/>
		<path fill="#A5A4A4" d="M66.991,240.478c-6.131-10.041-9.902-27.781-9.902-27.781l-0.474-0.006l-0.496,0.006
			c0,0-3.75,17.74-9.881,27.781c-0.427,0.7-1.043,2.302-0.607,2.731C49.105,246.628,52.914,258,52.914,258h7.402
			c0,0,3.809-11.372,7.283-14.791C68.034,242.779,67.418,241.177,66.991,240.478z"/>
	</g>
	<path fill="#A5A4A4" d="M61.637,260.671c0-0.771-0.582-1.403-1.292-1.403h-7.779c-0.71,0-1.292,0.632-1.292,1.403v0.526h-0.001
		V587.31H61.61l0.027-325.996V260.671z"/>
	<ellipse fill="#A5A4A4" cx="56.456" cy="258.44" rx="4.24" ry="2.887"/>
	<g>
		<g>
			<polygon fill="#A5A4A4" points="656.016,212.69 656.166,212.691 656.316,212.69 			"/>
			<path fill="#A5A4A4" d="M666.543,240.478c-6.132-10.041-9.902-27.781-9.902-27.781l-0.475-0.006l-0.495,0.006
				c0,0-3.749,17.74-9.881,27.781c-0.427,0.7-1.043,2.302-0.607,2.731c3.475,3.419,7.283,14.791,7.283,14.791h7.401
				c0,0,3.809-11.372,7.283-14.791C667.586,242.779,666.97,241.177,666.543,240.478z"/>
		</g>
		<path fill="#A5A4A4" d="M658.821,260.612c0-0.739-0.317-1.344-0.702-1.344h-4.224c-0.386,0-0.701,0.605-0.701,1.344v0.504h-0.001
			v312.625h5.613l0.015-312.513V260.612z"/>
		<ellipse fill="#A5A4A4" cx="656.007" cy="258.036" rx="4.24" ry="3.291"/>
	</g>
	<path fill="#A5A4A4" d="M709.873,288.063c0-1.448-0.87-2.672-2.083-3.146c-0.11-0.315-0.239-0.623-0.382-0.922
		c0.522-1.192,0.271-2.673-0.751-3.697c-1.025-1.024-2.507-1.275-3.699-0.752c-0.299-0.143-0.606-0.271-0.923-0.383
		c-0.474-1.212-1.697-2.082-3.146-2.082c-1.447,0-2.672,0.869-3.145,2.082c-0.315,0.112-0.623,0.24-0.923,0.383
		c-1.192-0.523-2.674-0.274-3.698,0.751c-1.024,1.024-1.275,2.506-0.752,3.698c-0.144,0.3-0.271,0.607-0.382,0.922
		c-1.214,0.474-2.083,1.698-2.083,3.146c0,1.448,0.869,2.672,2.082,3.146c0.111,0.315,0.239,0.624,0.383,0.923
		c-0.523,1.192-0.272,2.673,0.752,3.698c1.025,1.024,2.506,1.274,3.698,0.752c0.299,0.143,0.606,0.271,0.923,0.383
		c0.473,1.213,1.697,2.082,3.145,2.082c1.449,0,2.673-0.869,3.146-2.082c0.316-0.112,0.624-0.24,0.924-0.383
		c1.191,0.522,2.673,0.272,3.698-0.752c1.022-1.024,1.273-2.506,0.751-3.698c0.143-0.299,0.271-0.607,0.382-0.923
		C709.003,290.735,709.873,289.511,709.873,288.063z"/>
	<rect x="59.369" y="266.213" fill="#A5A4A4" width="681.259" height="5.492"/>
	<rect x="58.703" y="304.655" fill="#A5A4A4" width="681.925" height="5.491"/>
	<rect x="58.703" y="535.301" fill="#A5A4A4" width="681.925" height="5.491"/>
	<rect x="58.703" y="568.251" fill="#A5A4A4" width="681.925" height="5.491"/>
	<g>
		
			<rect x="654.299" y="286.483" transform="matrix(0.9222 -0.3867 0.3867 0.9222 -57.0242 292.6939)" fill="#A5A4A4" width="89.182" height="3.161"/>
		
			<rect x="654.299" y="286.483" transform="matrix(0.9256 0.3786 -0.3786 0.9256 161.0995 -243.1701)" fill="#A5A4A4" width="89.183" height="3.16"/>
	</g>
	<g>
		<g>
			<polygon fill="#A5A4A4" points="571.381,212.69 571.531,212.691 571.682,212.69 			"/>
			<path fill="#A5A4A4" d="M581.907,240.478c-6.131-10.041-9.902-27.781-9.902-27.781l-0.474-0.006l-0.495,0.006
				c0,0-3.75,17.74-9.882,27.781c-0.426,0.7-1.043,2.302-0.607,2.731c3.475,3.419,7.283,14.791,7.283,14.791h7.402
				c0,0,3.808-11.372,7.282-14.791C582.951,242.779,582.334,241.177,581.907,240.478z"/>
		</g>
		<path fill="#A5A4A4" d="M574.186,260.612c0-0.739-0.316-1.344-0.701-1.344h-4.225c-0.385,0-0.7,0.605-0.7,1.344v0.504h-0.002
			v312.625h5.613l0.015-312.513V260.612z"/>
		<ellipse fill="#A5A4A4" cx="571.373" cy="258.036" rx="4.24" ry="3.291"/>
	</g>
	<path fill="#A5A4A4" d="M625.238,288.063c0-1.448-0.87-2.672-2.083-3.146c-0.111-0.315-0.239-0.623-0.383-0.922
		c0.523-1.192,0.273-2.673-0.751-3.697s-2.506-1.275-3.699-0.752c-0.299-0.143-0.605-0.271-0.922-0.383
		c-0.474-1.212-1.698-2.082-3.146-2.082c-1.447,0-2.671,0.869-3.146,2.082c-0.315,0.112-0.622,0.24-0.921,0.383
		c-1.193-0.523-2.676-0.274-3.699,0.751c-1.024,1.024-1.274,2.506-0.752,3.698c-0.143,0.3-0.271,0.607-0.383,0.922
		c-1.213,0.474-2.083,1.698-2.083,3.146c0,1.448,0.87,2.672,2.083,3.146c0.111,0.315,0.24,0.624,0.383,0.923
		c-0.522,1.192-0.272,2.673,0.752,3.698c1.024,1.024,2.506,1.274,3.698,0.752c0.299,0.143,0.605,0.271,0.922,0.383
		c0.475,1.213,1.698,2.082,3.146,2.082c1.448,0,2.673-0.869,3.146-2.082c0.316-0.112,0.623-0.24,0.923-0.383
		c1.192,0.522,2.674,0.272,3.698-0.752c1.024-1.024,1.274-2.506,0.751-3.698c0.144-0.299,0.271-0.607,0.384-0.923
		C624.368,290.735,625.238,289.511,625.238,288.063z"/>
	<g>
		
			<rect x="569.663" y="286.483" transform="matrix(0.9222 -0.3867 0.3867 0.9222 -63.6093 259.9602)" fill="#A5A4A4" width="89.183" height="3.161"/>
		
			<rect x="569.664" y="286.483" transform="matrix(0.9255 0.3786 -0.3786 0.9255 154.8005 -211.1271)" fill="#A5A4A4" width="89.182" height="3.16"/>
	</g>
	<g>
		<g>
			<polygon fill="#A5A4A4" points="485.454,212.69 485.604,212.691 485.755,212.69 			"/>
			<path fill="#A5A4A4" d="M495.98,240.478c-6.131-10.041-9.902-27.781-9.902-27.781l-0.474-0.006l-0.496,0.006
				c0,0-3.749,17.74-9.88,27.781c-0.428,0.7-1.044,2.302-0.607,2.731c3.475,3.419,7.281,14.791,7.281,14.791h7.403
				c0,0,3.808-11.372,7.282-14.791C497.023,242.779,496.407,241.177,495.98,240.478z"/>
		</g>
		<path fill="#A5A4A4" d="M488.26,260.612c0-0.739-0.317-1.344-0.702-1.344h-4.225c-0.385,0-0.701,0.605-0.701,1.344v0.504l0,0
			v312.625h5.611l0.017-312.513V260.612z"/>
		<ellipse fill="#A5A4A4" cx="485.445" cy="258.036" rx="4.24" ry="3.291"/>
	</g>
	<path fill="#A5A4A4" d="M539.311,288.063c0-1.448-0.869-2.672-2.083-3.146c-0.111-0.315-0.239-0.623-0.382-0.922
		c0.522-1.192,0.272-2.673-0.751-3.697c-1.024-1.024-2.506-1.275-3.699-0.752c-0.3-0.143-0.606-0.271-0.922-0.383
		c-0.475-1.212-1.698-2.082-3.146-2.082c-1.447,0-2.672,0.869-3.146,2.082c-0.316,0.112-0.623,0.24-0.922,0.383
		c-1.192-0.523-2.674-0.274-3.698,0.751c-1.025,1.024-1.275,2.506-0.752,3.698c-0.144,0.3-0.271,0.607-0.383,0.922
		c-1.213,0.474-2.084,1.698-2.084,3.146c0,1.448,0.871,2.672,2.084,3.146c0.111,0.315,0.239,0.624,0.383,0.923
		c-0.523,1.192-0.273,2.673,0.752,3.698c1.024,1.024,2.506,1.274,3.697,0.752c0.3,0.143,0.606,0.271,0.923,0.383
		c0.474,1.213,1.698,2.082,3.146,2.082c1.448,0,2.672-0.869,3.146-2.082c0.315-0.112,0.622-0.24,0.923-0.383
		c1.192,0.522,2.674,0.272,3.698-0.752c1.023-1.024,1.273-2.506,0.751-3.698c0.143-0.299,0.271-0.607,0.383-0.923
		C538.441,290.735,539.311,289.511,539.311,288.063z"/>
	<g>
		
			<rect x="483.737" y="286.483" transform="matrix(0.9222 -0.3867 0.3867 0.9222 -70.2951 226.7325)" fill="#A5A4A4" width="89.182" height="3.161"/>
		
			<rect x="483.736" y="286.483" transform="matrix(0.9255 0.3786 -0.3786 0.9255 148.4032 -178.5925)" fill="#A5A4A4" width="89.182" height="3.16"/>
	</g>
	<g>
		<g>
			<polygon fill="#A5A4A4" points="400.819,212.69 400.969,212.691 401.119,212.69 			"/>
			<path fill="#A5A4A4" d="M411.346,240.478c-6.132-10.041-9.902-27.781-9.902-27.781l-0.474-0.006l-0.496,0.006
				c0,0-3.75,17.74-9.881,27.781c-0.427,0.7-1.043,2.302-0.607,2.731c3.475,3.419,7.283,14.791,7.283,14.791h7.402
				c0,0,3.808-11.372,7.283-14.791C412.389,242.779,411.772,241.177,411.346,240.478z"/>
		</g>
		<path fill="#A5A4A4" d="M403.624,260.612c0-0.739-0.317-1.344-0.702-1.344h-4.224c-0.385,0-0.701,0.605-0.701,1.344v0.504h-0.001
			v312.625h5.612l0.016-312.513V260.612z"/>
		<ellipse fill="#A5A4A4" cx="400.81" cy="258.036" rx="4.24" ry="3.291"/>
	</g>
	<path fill="#A5A4A4" d="M454.676,288.063c0-1.448-0.87-2.672-2.083-3.146c-0.111-0.315-0.239-0.623-0.382-0.922
		c0.522-1.192,0.271-2.673-0.752-3.697s-2.505-1.275-3.698-0.752c-0.299-0.143-0.606-0.271-0.923-0.383
		c-0.474-1.212-1.697-2.082-3.146-2.082c-1.447,0-2.671,0.869-3.145,2.082c-0.315,0.112-0.623,0.24-0.923,0.383
		c-1.192-0.523-2.674-0.274-3.698,0.751c-1.023,1.024-1.275,2.506-0.752,3.698c-0.143,0.3-0.271,0.607-0.382,0.922
		c-1.213,0.474-2.083,1.698-2.083,3.146c0,1.448,0.87,2.672,2.082,3.146c0.111,0.315,0.24,0.624,0.383,0.923
		c-0.523,1.192-0.271,2.673,0.752,3.698c1.025,1.024,2.506,1.274,3.698,0.752c0.299,0.143,0.606,0.271,0.923,0.383
		c0.474,1.213,1.697,2.082,3.145,2.082c1.449,0,2.673-0.869,3.146-2.082c0.316-0.112,0.624-0.24,0.923-0.383
		c1.193,0.522,2.675,0.272,3.698-0.752c1.023-1.024,1.274-2.506,0.752-3.698c0.143-0.299,0.271-0.607,0.383-0.923
		C453.806,290.735,454.676,289.511,454.676,288.063z"/>
	<g>
		
			<rect x="399.102" y="286.483" transform="matrix(0.9222 -0.3867 0.3867 0.9222 -76.8802 194.0018)" fill="#A5A4A4" width="89.182" height="3.161"/>
		
			<rect x="399.101" y="286.483" transform="matrix(0.9256 0.3786 -0.3786 0.9256 142.0985 -146.5452)" fill="#A5A4A4" width="89.183" height="3.161"/>
	</g>
	<g>
		<g>
			<polygon fill="#A5A4A4" points="314.892,212.69 315.042,212.691 315.192,212.69 			"/>
			<path fill="#A5A4A4" d="M325.418,240.478c-6.131-10.041-9.903-27.781-9.903-27.781l-0.474-0.006l-0.495,0.006
				c0,0-3.75,17.74-9.881,27.781c-0.428,0.7-1.044,2.302-0.608,2.731c3.475,3.419,7.283,14.791,7.283,14.791h7.402
				c0,0,3.809-11.372,7.283-14.791C326.462,242.779,325.845,241.177,325.418,240.478z"/>
		</g>
		<path fill="#A5A4A4" d="M317.697,260.612c0-0.739-0.317-1.344-0.702-1.344h-4.225c-0.385,0-0.7,0.605-0.7,1.344v0.504h-0.001
			v312.625h5.612l0.016-312.513V260.612z"/>
		<ellipse fill="#A5A4A4" cx="314.883" cy="258.036" rx="4.24" ry="3.291"/>
	</g>
	<path fill="#A5A4A4" d="M368.749,288.063c0-1.448-0.87-2.672-2.083-3.146c-0.111-0.315-0.239-0.623-0.382-0.922
		c0.523-1.192,0.272-2.673-0.75-3.697c-1.025-1.024-2.506-1.275-3.699-0.752c-0.299-0.143-0.606-0.271-0.922-0.383
		c-0.474-1.212-1.698-2.082-3.146-2.082c-1.447,0-2.671,0.869-3.146,2.082c-0.315,0.112-0.623,0.24-0.921,0.383
		c-1.193-0.523-2.674-0.274-3.699,0.751c-1.024,1.024-1.275,2.506-0.752,3.698c-0.143,0.3-0.271,0.607-0.382,0.922
		c-1.213,0.474-2.083,1.698-2.083,3.146c0,1.448,0.87,2.672,2.083,3.146c0.112,0.315,0.24,0.624,0.383,0.923
		c-0.523,1.192-0.272,2.673,0.752,3.698c1.024,1.024,2.506,1.274,3.698,0.752c0.299,0.143,0.606,0.271,0.922,0.383
		c0.474,1.213,1.698,2.082,3.146,2.082c1.448,0,2.672-0.869,3.146-2.082c0.316-0.112,0.623-0.24,0.923-0.383
		c1.192,0.522,2.674,0.272,3.699-0.752c1.023-1.024,1.274-2.506,0.75-3.698c0.143-0.299,0.271-0.607,0.383-0.923
		C367.879,290.735,368.749,289.511,368.749,288.063z"/>
	<g>
		
			<rect x="313.174" y="286.483" transform="matrix(0.9222 -0.3867 0.3867 0.9222 -83.5656 160.7703)" fill="#A5A4A4" width="89.183" height="3.161"/>
		
			<rect x="313.175" y="286.484" transform="matrix(0.9255 0.3786 -0.3786 0.9255 135.7047 -114.0132)" fill="#A5A4A4" width="89.182" height="3.16"/>
	</g>
	<g>
		<g>
			<polygon fill="#A5A4A4" points="230.257,212.69 230.407,212.691 230.557,212.69 			"/>
			<path fill="#A5A4A4" d="M240.783,240.478c-6.131-10.041-9.902-27.781-9.902-27.781l-0.474-0.006l-0.496,0.006
				c0,0-3.75,17.74-9.881,27.781c-0.427,0.7-1.043,2.302-0.607,2.731c3.475,3.419,7.283,14.791,7.283,14.791h7.402
				c0,0,3.809-11.372,7.283-14.791C241.827,242.779,241.21,241.177,240.783,240.478z"/>
		</g>
		<path fill="#A5A4A4" d="M233.062,260.612c0-0.739-0.317-1.344-0.702-1.344h-4.225c-0.385,0-0.7,0.605-0.7,1.344v0.504h-0.001
			v312.625h5.612l0.016-312.513V260.612z"/>
		<ellipse fill="#A5A4A4" cx="230.248" cy="258.036" rx="4.24" ry="3.291"/>
	</g>
	<path fill="#A5A4A4" d="M284.114,288.063c0-1.448-0.87-2.672-2.083-3.146c-0.111-0.315-0.239-0.623-0.382-0.922
		c0.523-1.192,0.272-2.673-0.751-3.697c-1.024-1.024-2.506-1.275-3.699-0.752c-0.299-0.143-0.606-0.271-0.922-0.383
		c-0.474-1.212-1.698-2.082-3.147-2.082c-1.447,0-2.671,0.869-3.145,2.082c-0.315,0.112-0.623,0.24-0.922,0.383
		c-1.193-0.523-2.674-0.274-3.698,0.751c-1.024,1.024-1.275,2.506-0.752,3.698c-0.144,0.3-0.271,0.607-0.382,0.922
		c-1.214,0.474-2.084,1.698-2.084,3.146c0,1.448,0.87,2.672,2.083,3.146c0.112,0.315,0.24,0.624,0.383,0.923
		c-0.523,1.192-0.272,2.673,0.752,3.698c1.024,1.024,2.505,1.274,3.698,0.752c0.299,0.143,0.606,0.271,0.922,0.383
		c0.474,1.213,1.698,2.082,3.145,2.082c1.449,0,2.673-0.869,3.147-2.082c0.315-0.112,0.623-0.24,0.922-0.383
		c1.193,0.522,2.674,0.272,3.699-0.752c1.023-1.024,1.274-2.506,0.751-3.698c0.143-0.299,0.271-0.607,0.383-0.923
		C283.244,290.735,284.114,289.511,284.114,288.063z"/>
	<g>
		
			<rect x="228.539" y="286.483" transform="matrix(0.9222 -0.3867 0.3867 0.9222 -90.1511 128.0405)" fill="#A5A4A4" width="89.182" height="3.161"/>
		
			<rect x="228.54" y="286.483" transform="matrix(0.9255 0.3786 -0.3786 0.9255 129.4028 -81.9678)" fill="#A5A4A4" width="89.182" height="3.16"/>
	</g>
	<g>
		<g>
			<polygon fill="#A5A4A4" points="144.33,212.69 144.479,212.691 144.63,212.69 			"/>
			<path fill="#A5A4A4" d="M154.856,240.478c-6.131-10.041-9.902-27.781-9.902-27.781l-0.474-0.006l-0.495,0.006
				c0,0-3.75,17.74-9.881,27.781c-0.427,0.7-1.043,2.302-0.607,2.731c3.475,3.419,7.283,14.791,7.283,14.791h7.402
				c0,0,3.809-11.372,7.283-14.791C155.899,242.779,155.283,241.177,154.856,240.478z"/>
		</g>
		<path fill="#A5A4A4" d="M147.135,260.612c0-0.739-0.317-1.344-0.702-1.344h-4.225c-0.385,0-0.701,0.605-0.701,1.344v0.504h-0.001
			v312.625h5.613l0.015-312.513V260.612z"/>
		<ellipse fill="#A5A4A4" cx="144.321" cy="258.036" rx="4.24" ry="3.291"/>
	</g>
	<path fill="#A5A4A4" d="M198.187,288.063c0-1.448-0.87-2.672-2.083-3.146c-0.111-0.315-0.239-0.623-0.382-0.922
		c0.523-1.192,0.272-2.673-0.75-3.697c-1.025-1.024-2.506-1.275-3.7-0.752c-0.299-0.143-0.606-0.271-0.922-0.383
		c-0.474-1.212-1.698-2.082-3.146-2.082c-1.447,0-2.671,0.869-3.145,2.082c-0.315,0.112-0.623,0.24-0.922,0.383
		c-1.193-0.523-2.674-0.274-3.698,0.751c-1.025,1.024-1.275,2.506-0.752,3.698c-0.143,0.3-0.271,0.607-0.382,0.922
		c-1.213,0.474-2.083,1.698-2.083,3.146c0,1.448,0.87,2.672,2.083,3.146c0.111,0.315,0.239,0.624,0.382,0.923
		c-0.523,1.192-0.272,2.673,0.752,3.698c1.024,1.024,2.505,1.274,3.698,0.752c0.299,0.143,0.606,0.271,0.922,0.383
		c0.474,1.213,1.698,2.082,3.145,2.082c1.449,0,2.673-0.869,3.146-2.082c0.316-0.112,0.624-0.24,0.923-0.383
		c1.192,0.522,2.674,0.272,3.699-0.752c1.023-1.024,1.273-2.506,0.75-3.698c0.143-0.299,0.271-0.607,0.383-0.923
		C197.317,290.735,198.187,289.511,198.187,288.063z"/>
	<g>
		
			<rect x="142.612" y="286.483" transform="matrix(0.9222 -0.3867 0.3867 0.9222 -96.8367 94.8101)" fill="#A5A4A4" width="89.182" height="3.161"/>
		
			<rect x="142.612" y="286.483" transform="matrix(0.9255 0.3786 -0.3786 0.9255 123.0055 -49.4336)" fill="#A5A4A4" width="89.182" height="3.16"/>
	</g>
	<path fill="#A5A4A4" d="M113.552,288.063c0-1.448-0.87-2.672-2.083-3.146c-0.111-0.315-0.239-0.623-0.382-0.922
		c0.523-1.192,0.272-2.673-0.751-3.697c-1.024-1.024-2.506-1.275-3.699-0.752c-0.299-0.143-0.606-0.271-0.922-0.383
		c-0.474-1.212-1.698-2.082-3.146-2.082c-1.447,0-2.671,0.869-3.145,2.082c-0.315,0.112-0.623,0.24-0.922,0.383
		c-1.193-0.523-2.675-0.274-3.699,0.751c-1.024,1.024-1.275,2.506-0.752,3.698c-0.143,0.3-0.271,0.607-0.382,0.922
		c-1.213,0.474-2.083,1.698-2.083,3.146c0,1.448,0.87,2.672,2.083,3.146c0.111,0.315,0.24,0.624,0.383,0.923
		c-0.523,1.192-0.272,2.673,0.752,3.698c1.025,1.024,2.505,1.274,3.698,0.752c0.299,0.143,0.606,0.271,0.923,0.383
		c0.474,1.213,1.698,2.082,3.145,2.082c1.449,0,2.673-0.869,3.146-2.082c0.316-0.112,0.624-0.24,0.923-0.383
		c1.192,0.522,2.674,0.272,3.698-0.752c1.024-1.024,1.274-2.506,0.751-3.698c0.143-0.299,0.271-0.607,0.383-0.923
		C112.682,290.735,113.552,289.511,113.552,288.063z"/>
	<g>
		
			<rect x="57.977" y="286.483" transform="matrix(0.9222 -0.3867 0.3867 0.9222 -103.4219 62.0793)" fill="#A5A4A4" width="89.182" height="3.161"/>
		
			<rect x="57.977" y="286.483" transform="matrix(0.9256 0.3786 -0.3786 0.9256 116.7038 -17.3888)" fill="#A5A4A4" width="89.183" height="3.161"/>
	</g>
</g>
</svg>
