<?xml version="1.0" encoding="utf-8"?>
<!-- Generator: Adobe Illustrator 20.1.0, SVG Export Plug-In . SVG Version: 6.00 Build 0)  -->
<svg version="1.1" id="Слой_1" xmlns="http://www.w3.org/2000/svg" xmlns:xlink="http://www.w3.org/1999/xlink" x="0px" y="0px"
	 viewBox="0 0 800 800" style="enable-background:new 0 0 800 800;" xml:space="preserve">
<style type="text/css">
	.st0{fill:#A5A4A4;}
</style>
<g>
	<g>
		<polygon class="st0" points="743.2,212.7 743.4,212.7 743.5,212.7 		"/>
		<path class="st0" d="M753.8,240.5c-6.1-10-9.9-27.8-9.9-27.8l-0.5,0l-0.5,0c0,0-3.7,17.7-9.9,27.8c-0.4,0.7-1,2.3-0.6,2.7
			c3.5,3.4,7.3,14.8,7.3,14.8h7.4c0,0,3.8-11.4,7.3-14.8C754.8,242.8,754.2,241.2,753.8,240.5z"/>
	</g>
	<path class="st0" d="M748.4,260.7c0-0.8-0.6-1.4-1.3-1.4h-7.8c-0.7,0-1.3,0.6-1.3,1.4v0.5h0v326.1h10.3l0-326V260.7z"/>
	<ellipse class="st0" cx="743.2" cy="258.4" rx="4.2" ry="2.9"/>
	<g>
		<polygon class="st0" points="56.5,212.7 56.6,212.7 56.8,212.7 		"/>
		<path class="st0" d="M67,240.5c-6.1-10-9.9-27.8-9.9-27.8l-0.5,0l-0.5,0c0,0-3.8,17.7-9.9,27.8c-0.4,0.7-1,2.3-0.6,2.7
			c3.5,3.4,7.3,14.8,7.3,14.8h7.4c0,0,3.8-11.4,7.3-14.8C68,242.8,67.4,241.2,67,240.5z"/>
	</g>
	<path class="st0" d="M61.6,260.7c0-0.8-0.6-1.4-1.3-1.4h-7.8c-0.7,0-1.3,0.6-1.3,1.4v0.5h0v326.1h10.3l0-326V260.7z"/>
	<ellipse class="st0" cx="56.5" cy="258.4" rx="4.2" ry="2.9"/>
	<g>
		<g>
			<polygon class="st0" points="656,212.7 656.2,212.7 656.3,212.7 			"/>
			<path class="st0" d="M666.5,240.5c-6.1-10-9.9-27.8-9.9-27.8l-0.5,0l-0.5,0c0,0-3.7,17.7-9.9,27.8c-0.4,0.7-1,2.3-0.6,2.7
				c3.5,3.4,7.3,14.8,7.3,14.8h7.4c0,0,3.8-11.4,7.3-14.8C667.6,242.8,667,241.2,666.5,240.5z"/>
		</g>
		<path class="st0" d="M658.8,260.6c0-0.7-0.3-1.3-0.7-1.3h-4.2c-0.4,0-0.7,0.6-0.7,1.3v0.5h0v312.6h5.6l0-312.5V260.6z"/>
		<ellipse class="st0" cx="656" cy="258" rx="4.2" ry="3.3"/>
	</g>
	<path class="st0" d="M709.9,288.1c0-1.4-0.9-2.7-2.1-3.1c-0.1-0.3-0.2-0.6-0.4-0.9c0.5-1.2,0.3-2.7-0.8-3.7c-1-1-2.5-1.3-3.7-0.8
		c-0.3-0.1-0.6-0.3-0.9-0.4c-0.5-1.2-1.7-2.1-3.1-2.1c-1.4,0-2.7,0.9-3.1,2.1c-0.3,0.1-0.6,0.2-0.9,0.4c-1.2-0.5-2.7-0.3-3.7,0.8
		c-1,1-1.3,2.5-0.8,3.7c-0.1,0.3-0.3,0.6-0.4,0.9c-1.2,0.5-2.1,1.7-2.1,3.1s0.9,2.7,2.1,3.1c0.1,0.3,0.2,0.6,0.4,0.9
		c-0.5,1.2-0.3,2.7,0.8,3.7c1,1,2.5,1.3,3.7,0.8c0.3,0.1,0.6,0.3,0.9,0.4c0.5,1.2,1.7,2.1,3.1,2.1c1.4,0,2.7-0.9,3.1-2.1
		c0.3-0.1,0.6-0.2,0.9-0.4c1.2,0.5,2.7,0.3,3.7-0.8c1-1,1.3-2.5,0.8-3.7c0.1-0.3,0.3-0.6,0.4-0.9C709,290.7,709.9,289.5,709.9,288.1
		z"/>
	<rect x="59.4" y="266.2" class="st0" width="681.3" height="5.5"/>
	<rect x="58.7" y="304.7" class="st0" width="681.9" height="5.5"/>
	<rect x="58.7" y="535.3" class="st0" width="681.9" height="5.5"/>
	<rect x="58.7" y="568.3" class="st0" width="681.9" height="5.5"/>
	<g>
		
			<rect x="654.3" y="286.5" transform="matrix(0.9222 -0.3867 0.3867 0.9222 -57.0331 292.6724)" class="st0" width="89.2" height="3.2"/>
		
			<rect x="697.4" y="243.5" transform="matrix(0.3786 -0.9256 0.9256 0.3786 167.7065 825.9127)" class="st0" width="3.2" height="89.2"/>
	</g>
	<g>
		<g>
			<polygon class="st0" points="571.4,212.7 571.5,212.7 571.7,212.7 			"/>
			<path class="st0" d="M581.9,240.5c-6.1-10-9.9-27.8-9.9-27.8l-0.5,0l-0.5,0c0,0-3.8,17.7-9.9,27.8c-0.4,0.7-1,2.3-0.6,2.7
				c3.5,3.4,7.3,14.8,7.3,14.8h7.4c0,0,3.8-11.4,7.3-14.8C583,242.8,582.3,241.2,581.9,240.5z"/>
		</g>
		<path class="st0" d="M574.2,260.6c0-0.7-0.3-1.3-0.7-1.3h-4.2c-0.4,0-0.7,0.6-0.7,1.3v0.5h0v312.6h5.6l0-312.5V260.6z"/>
		<ellipse class="st0" cx="571.4" cy="258" rx="4.2" ry="3.3"/>
	</g>
	<path class="st0" d="M625.2,288.1c0-1.4-0.9-2.7-2.1-3.1c-0.1-0.3-0.2-0.6-0.4-0.9c0.5-1.2,0.3-2.7-0.8-3.7s-2.5-1.3-3.7-0.8
		c-0.3-0.1-0.6-0.3-0.9-0.4c-0.5-1.2-1.7-2.1-3.1-2.1c-1.4,0-2.7,0.9-3.1,2.1c-0.3,0.1-0.6,0.2-0.9,0.4c-1.2-0.5-2.7-0.3-3.7,0.8
		c-1,1-1.3,2.5-0.8,3.7c-0.1,0.3-0.3,0.6-0.4,0.9c-1.2,0.5-2.1,1.7-2.1,3.1s0.9,2.7,2.1,3.1c0.1,0.3,0.2,0.6,0.4,0.9
		c-0.5,1.2-0.3,2.7,0.8,3.7c1,1,2.5,1.3,3.7,0.8c0.3,0.1,0.6,0.3,0.9,0.4c0.5,1.2,1.7,2.1,3.1,2.1s2.7-0.9,3.1-2.1
		c0.3-0.1,0.6-0.2,0.9-0.4c1.2,0.5,2.7,0.3,3.7-0.8c1-1,1.3-2.5,0.8-3.7c0.1-0.3,0.3-0.6,0.4-0.9
		C624.4,290.7,625.2,289.5,625.2,288.1z"/>
	<g>
		
			<rect x="569.7" y="286.5" transform="matrix(0.9222 -0.3867 0.3867 0.9222 -63.6154 259.9431)" class="st0" width="89.2" height="3.2"/>
		
			<rect x="612.7" y="243.4" transform="matrix(0.3786 -0.9256 0.9256 0.3786 115.0826 747.4813)" class="st0" width="3.2" height="89.2"/>
	</g>
	<g>
		<g>
			<polygon class="st0" points="485.5,212.7 485.6,212.7 485.8,212.7 			"/>
			<path class="st0" d="M496,240.5c-6.1-10-9.9-27.8-9.9-27.8l-0.5,0l-0.5,0c0,0-3.7,17.7-9.9,27.8c-0.4,0.7-1,2.3-0.6,2.7
				c3.5,3.4,7.3,14.8,7.3,14.8h7.4c0,0,3.8-11.4,7.3-14.8C497,242.8,496.4,241.2,496,240.5z"/>
		</g>
		<path class="st0" d="M488.3,260.6c0-0.7-0.3-1.3-0.7-1.3h-4.2c-0.4,0-0.7,0.6-0.7,1.3v0.5l0,0v312.6h5.6l0-312.5V260.6z"/>
		<ellipse class="st0" cx="485.4" cy="258" rx="4.2" ry="3.3"/>
	</g>
	<path class="st0" d="M539.3,288.1c0-1.4-0.9-2.7-2.1-3.1c-0.1-0.3-0.2-0.6-0.4-0.9c0.5-1.2,0.3-2.7-0.8-3.7c-1-1-2.5-1.3-3.7-0.8
		c-0.3-0.1-0.6-0.3-0.9-0.4c-0.5-1.2-1.7-2.1-3.1-2.1c-1.4,0-2.7,0.9-3.1,2.1c-0.3,0.1-0.6,0.2-0.9,0.4c-1.2-0.5-2.7-0.3-3.7,0.8
		c-1,1-1.3,2.5-0.8,3.7c-0.1,0.3-0.3,0.6-0.4,0.9c-1.2,0.5-2.1,1.7-2.1,3.1s0.9,2.7,2.1,3.1c0.1,0.3,0.2,0.6,0.4,0.9
		c-0.5,1.2-0.3,2.7,0.8,3.7c1,1,2.5,1.3,3.7,0.8c0.3,0.1,0.6,0.3,0.9,0.4c0.5,1.2,1.7,2.1,3.1,2.1s2.7-0.9,3.1-2.1
		c0.3-0.1,0.6-0.2,0.9-0.4c1.2,0.5,2.7,0.3,3.7-0.8c1-1,1.3-2.5,0.8-3.7c0.1-0.3,0.3-0.6,0.4-0.9
		C538.4,290.7,539.3,289.5,539.3,288.1z"/>
	<g>
		
			<rect x="483.7" y="286.5" transform="matrix(0.9222 -0.3867 0.3867 0.9222 -70.3002 226.7149)" class="st0" width="89.2" height="3.2"/>
		
			<rect x="526.7" y="243.4" transform="matrix(0.3786 -0.9256 0.9256 0.3786 61.6894 667.9559)" class="st0" width="3.2" height="89.2"/>
	</g>
	<g>
		<g>
			<polygon class="st0" points="400.8,212.7 401,212.7 401.1,212.7 			"/>
			<path class="st0" d="M411.3,240.5c-6.1-10-9.9-27.8-9.9-27.8l-0.5,0l-0.5,0c0,0-3.8,17.7-9.9,27.8c-0.4,0.7-1,2.3-0.6,2.7
				c3.5,3.4,7.3,14.8,7.3,14.8h7.4c0,0,3.8-11.4,7.3-14.8C412.4,242.8,411.8,241.2,411.3,240.5z"/>
		</g>
		<path class="st0" d="M403.6,260.6c0-0.7-0.3-1.3-0.7-1.3h-4.2c-0.4,0-0.7,0.6-0.7,1.3v0.5h0v312.6h5.6l0-312.5V260.6z"/>
		<ellipse class="st0" cx="400.8" cy="258" rx="4.2" ry="3.3"/>
	</g>
	<path class="st0" d="M454.7,288.1c0-1.4-0.9-2.7-2.1-3.1c-0.1-0.3-0.2-0.6-0.4-0.9c0.5-1.2,0.3-2.7-0.8-3.7s-2.5-1.3-3.7-0.8
		c-0.3-0.1-0.6-0.3-0.9-0.4c-0.5-1.2-1.7-2.1-3.1-2.1c-1.4,0-2.7,0.9-3.1,2.1c-0.3,0.1-0.6,0.2-0.9,0.4c-1.2-0.5-2.7-0.3-3.7,0.8
		c-1,1-1.3,2.5-0.8,3.7c-0.1,0.3-0.3,0.6-0.4,0.9c-1.2,0.5-2.1,1.7-2.1,3.1s0.9,2.7,2.1,3.1c0.1,0.3,0.2,0.6,0.4,0.9
		c-0.5,1.2-0.3,2.7,0.8,3.7c1,1,2.5,1.3,3.7,0.8c0.3,0.1,0.6,0.3,0.9,0.4c0.5,1.2,1.7,2.1,3.1,2.1c1.4,0,2.7-0.9,3.1-2.1
		c0.3-0.1,0.6-0.2,0.9-0.4c1.2,0.5,2.7,0.3,3.7-0.8c1-1,1.3-2.5,0.8-3.7c0.1-0.3,0.3-0.6,0.4-0.9
		C453.8,290.7,454.7,289.5,454.7,288.1z"/>
	<g>
		
			<rect x="399.1" y="286.5" transform="matrix(0.9222 -0.3867 0.3867 0.9222 -76.8835 193.986)" class="st0" width="89.2" height="3.2"/>
		
			<rect x="442.1" y="243.5" transform="matrix(0.3786 -0.9256 0.9256 0.3786 9.1071 589.7014)" class="st0" width="3.2" height="89.2"/>
	</g>
	<g>
		<g>
			<polygon class="st0" points="314.9,212.7 315,212.7 315.2,212.7 			"/>
			<path class="st0" d="M325.4,240.5c-6.1-10-9.9-27.8-9.9-27.8l-0.5,0l-0.5,0c0,0-3.8,17.7-9.9,27.8c-0.4,0.7-1,2.3-0.6,2.7
				c3.5,3.4,7.3,14.8,7.3,14.8h7.4c0,0,3.8-11.4,7.3-14.8C326.5,242.8,325.8,241.2,325.4,240.5z"/>
		</g>
		<path class="st0" d="M317.7,260.6c0-0.7-0.3-1.3-0.7-1.3h-4.2c-0.4,0-0.7,0.6-0.7,1.3v0.5h0v312.6h5.6l0-312.5L317.7,260.6
			L317.7,260.6z"/>
		<ellipse class="st0" cx="314.9" cy="258" rx="4.2" ry="3.3"/>
	</g>
	<path class="st0" d="M368.7,288.1c0-1.4-0.9-2.7-2.1-3.1c-0.1-0.3-0.2-0.6-0.4-0.9c0.5-1.2,0.3-2.7-0.8-3.7c-1-1-2.5-1.3-3.7-0.8
		c-0.3-0.1-0.6-0.3-0.9-0.4c-0.5-1.2-1.7-2.1-3.1-2.1c-1.4,0-2.7,0.9-3.1,2.1c-0.3,0.1-0.6,0.2-0.9,0.4c-1.2-0.5-2.7-0.3-3.7,0.8
		c-1,1-1.3,2.5-0.8,3.7c-0.1,0.3-0.3,0.6-0.4,0.9c-1.2,0.5-2.1,1.7-2.1,3.1s0.9,2.7,2.1,3.1c0.1,0.3,0.2,0.6,0.4,0.9
		c-0.5,1.2-0.3,2.7,0.8,3.7c1,1,2.5,1.3,3.7,0.8c0.3,0.1,0.6,0.3,0.9,0.4c0.5,1.2,1.7,2.1,3.1,2.1s2.7-0.9,3.1-2.1
		c0.3-0.1,0.6-0.2,0.9-0.4c1.2,0.5,2.7,0.3,3.7-0.8c1-1,1.3-2.5,0.8-3.7c0.1-0.3,0.3-0.6,0.4-0.9
		C367.9,290.7,368.7,289.5,368.7,288.1z"/>
	<g>
		
			<rect x="313.2" y="286.5" transform="matrix(0.9222 -0.3867 0.3867 0.9222 -83.567 160.7573)" class="st0" width="89.2" height="3.2"/>
		
			<rect x="356.2" y="243.5" transform="matrix(0.3786 -0.9256 0.9256 0.3786 -44.2941 510.1039)" class="st0" width="3.2" height="89.2"/>
	</g>
	<g>
		<g>
			<polygon class="st0" points="230.3,212.7 230.4,212.7 230.6,212.7 			"/>
			<path class="st0" d="M240.8,240.5c-6.1-10-9.9-27.8-9.9-27.8l-0.5,0l-0.5,0c0,0-3.8,17.7-9.9,27.8c-0.4,0.7-1,2.3-0.6,2.7
				c3.5,3.4,7.3,14.8,7.3,14.8h7.4c0,0,3.8-11.4,7.3-14.8C241.8,242.8,241.2,241.2,240.8,240.5z"/>
		</g>
		<path class="st0" d="M233.1,260.6c0-0.7-0.3-1.3-0.7-1.3h-4.2c-0.4,0-0.7,0.6-0.7,1.3v0.5h0v312.6h5.6l0-312.5V260.6z"/>
		<ellipse class="st0" cx="230.2" cy="258" rx="4.2" ry="3.3"/>
	</g>
	<path class="st0" d="M284.1,288.1c0-1.4-0.9-2.7-2.1-3.1c-0.1-0.3-0.2-0.6-0.4-0.9c0.5-1.2,0.3-2.7-0.8-3.7c-1-1-2.5-1.3-3.7-0.8
		c-0.3-0.1-0.6-0.3-0.9-0.4c-0.5-1.2-1.7-2.1-3.1-2.1c-1.4,0-2.7,0.9-3.1,2.1c-0.3,0.1-0.6,0.2-0.9,0.4c-1.2-0.5-2.7-0.3-3.7,0.8
		c-1,1-1.3,2.5-0.8,3.7c-0.1,0.3-0.3,0.6-0.4,0.9c-1.2,0.5-2.1,1.7-2.1,3.1s0.9,2.7,2.1,3.1c0.1,0.3,0.2,0.6,0.4,0.9
		c-0.5,1.2-0.3,2.7,0.8,3.7c1,1,2.5,1.3,3.7,0.8c0.3,0.1,0.6,0.3,0.9,0.4c0.5,1.2,1.7,2.1,3.1,2.1c1.4,0,2.7-0.9,3.1-2.1
		c0.3-0.1,0.6-0.2,0.9-0.4c1.2,0.5,2.7,0.3,3.7-0.8c1-1,1.3-2.5,0.8-3.7c0.1-0.3,0.3-0.6,0.4-0.9
		C283.2,290.7,284.1,289.5,284.1,288.1z"/>
	<g>
		
			<rect x="228.5" y="286.5" transform="matrix(0.9222 -0.3867 0.3867 0.9222 -90.1508 128.0282)" class="st0" width="89.2" height="3.2"/>
		
			<rect x="271.5" y="243.5" transform="matrix(0.3786 -0.9256 0.9256 0.3786 -96.8837 431.7743)" class="st0" width="3.2" height="89.2"/>
	</g>
	<g>
		<g>
			<polygon class="st0" points="144.3,212.7 144.5,212.7 144.6,212.7 			"/>
			<path class="st0" d="M154.9,240.5c-6.1-10-9.9-27.8-9.9-27.8l-0.5,0l-0.5,0c0,0-3.8,17.7-9.9,27.8c-0.4,0.7-1,2.3-0.6,2.7
				c3.5,3.4,7.3,14.8,7.3,14.8h7.4c0,0,3.8-11.4,7.3-14.8C155.9,242.8,155.3,241.2,154.9,240.5z"/>
		</g>
		<path class="st0" d="M147.1,260.6c0-0.7-0.3-1.3-0.7-1.3h-4.2c-0.4,0-0.7,0.6-0.7,1.3v0.5h0v312.6h5.6l0-312.5L147.1,260.6
			L147.1,260.6z"/>
		<ellipse class="st0" cx="144.3" cy="258" rx="4.2" ry="3.3"/>
	</g>
	<path class="st0" d="M198.2,288.1c0-1.4-0.9-2.7-2.1-3.1c-0.1-0.3-0.2-0.6-0.4-0.9c0.5-1.2,0.3-2.7-0.8-3.7c-1-1-2.5-1.3-3.7-0.8
		c-0.3-0.1-0.6-0.3-0.9-0.4c-0.5-1.2-1.7-2.1-3.1-2.1c-1.4,0-2.7,0.9-3.1,2.1c-0.3,0.1-0.6,0.2-0.9,0.4c-1.2-0.5-2.7-0.3-3.7,0.8
		c-1,1-1.3,2.5-0.8,3.7c-0.1,0.3-0.3,0.6-0.4,0.9c-1.2,0.5-2.1,1.7-2.1,3.1s0.9,2.7,2.1,3.1c0.1,0.3,0.2,0.6,0.4,0.9
		c-0.5,1.2-0.3,2.7,0.8,3.7c1,1,2.5,1.3,3.7,0.8c0.3,0.1,0.6,0.3,0.9,0.4c0.5,1.2,1.7,2.1,3.1,2.1c1.4,0,2.7-0.9,3.1-2.1
		c0.3-0.1,0.6-0.2,0.9-0.4c1.2,0.5,2.7,0.3,3.7-0.8c1-1,1.3-2.5,0.8-3.7c0.1-0.3,0.3-0.6,0.4-0.9
		C197.3,290.7,198.2,289.5,198.2,288.1z"/>
	<g>
		
			<rect x="142.6" y="286.5" transform="matrix(0.9222 -0.3867 0.3867 0.9222 -96.8346 94.7996)" class="st0" width="89.2" height="3.2"/>
		
			<rect x="185.6" y="243.5" transform="matrix(0.3786 -0.9256 0.9256 0.3786 -150.2765 352.2487)" class="st0" width="3.2" height="89.2"/>
	</g>
	<path class="st0" d="M113.6,288.1c0-1.4-0.9-2.7-2.1-3.1c-0.1-0.3-0.2-0.6-0.4-0.9c0.5-1.2,0.3-2.7-0.8-3.7c-1-1-2.5-1.3-3.7-0.8
		c-0.3-0.1-0.6-0.3-0.9-0.4c-0.5-1.2-1.7-2.1-3.1-2.1c-1.4,0-2.7,0.9-3.1,2.1c-0.3,0.1-0.6,0.2-0.9,0.4c-1.2-0.5-2.7-0.3-3.7,0.8
		c-1,1-1.3,2.5-0.8,3.7c-0.1,0.3-0.3,0.6-0.4,0.9c-1.2,0.5-2.1,1.7-2.1,3.1s0.9,2.7,2.1,3.1c0.1,0.3,0.2,0.6,0.4,0.9
		c-0.5,1.2-0.3,2.7,0.8,3.7c1,1,2.5,1.3,3.7,0.8c0.3,0.1,0.6,0.3,0.9,0.4c0.5,1.2,1.7,2.1,3.1,2.1c1.4,0,2.7-0.9,3.1-2.1
		c0.3-0.1,0.6-0.2,0.9-0.4c1.2,0.5,2.7,0.3,3.7-0.8c1-1,1.3-2.5,0.8-3.7c0.1-0.3,0.3-0.6,0.4-0.9
		C112.7,290.7,113.6,289.5,113.6,288.1z"/>
	<g>
		
			<rect x="58" y="286.5" transform="matrix(0.9222 -0.3867 0.3867 0.9222 -103.4179 62.0707)" class="st0" width="89.2" height="3.2"/>
		
			<rect x="101" y="243.5" transform="matrix(0.3786 -0.9256 0.9256 0.3786 -202.8878 273.9588)" class="st0" width="3.2" height="89.2"/>
	</g>
</g>
<rect x="100" y="310.1" class="st0" width="5.1" height="227.9"/>
<rect x="184.6" y="310.1" class="st0" width="5.1" height="227.9"/>
<rect x="270.6" y="310.1" class="st0" width="5.1" height="227.9"/>
<rect x="355.8" y="310.1" class="st0" width="5.1" height="227.9"/>
<rect x="441.1" y="310.1" class="st0" width="5.1" height="227.9"/>
<rect x="526.4" y="310.1" class="st0" width="5.1" height="227.9"/>
<rect x="611.9" y="310.1" class="st0" width="5.1" height="227.9"/>
<rect x="696.2" y="310.1" class="st0" width="5.1" height="227.9"/>
</svg>
