<?xml version="1.0" encoding="utf-8"?>
<!-- Generator: Adobe Illustrator 16.0.2, SVG Export Plug-In . SVG Version: 6.00 Build 0)  -->
<!DOCTYPE svg PUBLIC "-//W3C//DTD SVG 1.1//EN" "http://www.w3.org/Graphics/SVG/1.1/DTD/svg11.dtd">
<svg version="1.1" id="Слой_1" xmlns="http://www.w3.org/2000/svg" xmlns:xlink="http://www.w3.org/1999/xlink" x="0px" y="0px"
	 width="800px" height="800px" viewBox="0 0 800 800" enable-background="new 0 0 800 800" xml:space="preserve">
<path fill="#A5A4A4" d="M644.131,161.463c-6.67,0-12.166,2.537-13.002,6.537H635v9h-47v-50.949c2-1.328,3.561-3.715,3.102-7.958
	c-0.398-3.679-3.597-6.192-4.848-9.546c-0.372-0.997-0.563-2.567-1.247-2.979c0,0-0.092-0.071-0.146-0.054
	c-0.055-0.017-0.144,0.051-0.144,0.051c-0.688,0.409-0.929,1.983-1.302,2.982c-1.252,3.354-4.636,5.867-5.033,9.546
	c-0.501,4.632,1.618,7.073,3.618,8.332V177h-29v-50.949c1-1.328,2.313-3.715,1.965-7.958c-0.301-3.679-2.91-6.192-3.856-9.546
	c-0.281-0.997-0.521-2.567-1.039-2.979c0,0-0.116-0.071-0.158-0.054c-0.041-0.017-0.133,0.051-0.133,0.051
	c-0.519,0.409-0.713,1.983-0.995,2.982c-0.947,3.354-3.362,5.867-3.662,9.546c-0.379,4.632,0.879,7.073,2.879,8.332V177h-32v-50.949
	c2-1.328,3.207-3.715,2.748-7.958c-0.398-3.679-3.771-6.192-5.024-9.546c-0.371-0.997-0.652-2.567-1.336-2.979
	c0,0-0.136-0.071-0.189-0.054c-0.055-0.017-0.167,0.051-0.167,0.051c-0.687,0.409-0.939,1.983-1.313,2.982
	c-1.251,3.354-4.287,5.867-4.685,9.546c-0.501,4.632,0.966,7.073,3.966,8.332V177h-31v-50.949c2-1.328,2.721-3.715,2.373-7.958
	c-0.301-3.679-2.706-6.192-3.653-9.546c-0.281-0.997-0.419-2.567-0.937-2.979c0,0-0.065-0.071-0.106-0.054
	c-0.041-0.017-0.107,0.051-0.107,0.051c-0.519,0.409-0.7,1.983-0.983,2.982c-0.947,3.354-3.264,5.867-3.563,9.546
	c-0.379,4.632,0.978,7.073,2.978,8.332V177h-32v-50.949c1-1.328,3.355-3.715,2.895-7.958c-0.398-3.679-3.698-6.192-4.949-9.546
	c-0.372-0.997-0.616-2.567-1.3-2.979c0,0-0.117-0.071-0.172-0.054c-0.055-0.017-0.157,0.051-0.157,0.051
	c-0.687,0.409-0.935,1.983-1.308,2.982c-1.251,3.354-4.433,5.867-4.829,9.546c-0.502,4.632,1.82,7.073,3.82,8.332V177h-31v-50.153
	c2-1.329,2.629-3.715,2.281-7.958c-0.301-3.679-2.752-6.192-3.699-9.546c-0.281-0.997-0.441-2.567-0.959-2.979
	c0,0-0.077-0.07-0.118-0.053c-0.041-0.017-0.113,0.051-0.113,0.051c-0.519,0.409-0.704,1.983-0.986,2.982
	c-0.947,3.354-3.173,5.867-3.474,9.546c-0.378,4.632,1.068,7.073,3.068,8.332V177h-32v-50.949c2-1.328,3.501-3.715,3.042-7.958
	c-0.397-3.679-3.626-6.192-4.877-9.546c-0.372-0.997-0.579-2.567-1.262-2.979c0,0-0.099-0.071-0.153-0.054
	c-0.055-0.017-0.148,0.051-0.148,0.051c-0.687,0.409-0.931,1.983-1.304,2.982c-1.251,3.354-4.576,5.867-4.974,9.546
	c-0.501,4.632,1.677,7.073,3.677,8.332V177h-31v-50.153c2-1.329,2.536-3.715,2.189-7.958c-0.301-3.679-2.797-6.192-3.745-9.546
	c-0.281-0.997-0.465-2.567-0.982-2.979c0,0-0.088-0.07-0.129-0.053c-0.042-0.017-0.119,0.051-0.119,0.051
	c-0.519,0.409-0.707,1.983-0.988,2.982c-0.947,3.354-3.583,5.867-3.883,9.546c-0.378,4.632,1.658,7.073,2.658,8.332V177h-31v-50.949
	c3-1.328,3.647-3.715,3.188-7.958c-0.397-3.679-3.552-6.192-4.804-9.546c-0.372-0.997-0.542-2.567-1.225-2.979
	c0,0-0.081-0.071-0.135-0.054c-0.055-0.017-0.14,0.051-0.14,0.051c-0.687,0.409-0.925,1.983-1.298,2.982
	c-1.251,3.354-4.721,5.867-5.119,9.546c-0.501,4.632,1.532,7.073,3.532,8.332V177h-31v-50.949c2-1.328,2.444-3.715,2.097-7.958
	c-0.3-3.679-2.843-6.192-3.79-9.546c-0.281-0.997-0.488-2.567-1.005-2.979c0,0-0.099-0.071-0.141-0.054
	c-0.042-0.017-0.125,0.051-0.125,0.051c-0.519,0.409-0.709,1.983-0.991,2.982c-0.947,3.354-3.493,5.867-3.793,9.546
	c-0.378,4.632,1.749,7.073,2.749,8.332V177h-30v-50.949c2-1.328,3.294-3.715,2.835-7.958c-0.397-3.679-3.729-6.192-4.98-9.546
	c-0.372-0.997-0.63-2.567-1.314-2.979c0,0-0.125-0.071-0.179-0.054c-0.055-0.017-0.162,0.051-0.162,0.051
	c-0.686,0.409-0.936,1.983-1.309,2.982c-1.251,3.354-4.373,5.867-4.771,9.546c-0.5,4.632,1.88,7.073,3.88,8.332V177h-47v-9h3.872
	c-0.836-4-6.332-6.537-13.003-6.537c-6.67,0-12.166,2.537-13.002,6.537H153v499h19v-18h47v17h6v-17h30v17h5v-17h31v17h6v-17h31v18h5
	v-18h31v17h6v-17h32v18h4v-18h31v17h6v-17h32v17h4v-17h31v17h6v-17h32v17h5v-17h29v17h6v-17h47v18h19V168h3.134
	C656.298,164,650.802,161.463,644.131,161.463z M635,183v74h-47v-74H635z M553,564V264h29v300H553z M225,564V264h30v300H225z
	 M219,564h-47V264h47V564z M260,264h31v300h-31V264z M297,564V264h31v300H297z M333,264h31v300h-31V264z M370,564V264h32v300H370z
	 M406,264h31v300h-31V264z M443,564V264h32v300H443z M479,264h31v300h-31V264z M516,564V264h32v300H516z M588,264h47v300h-47V264z
	 M582,252.655L559.135,183H582V252.655z M554.082,183l24.441,74H553v-74H554.082z M548,257h-28.113l24.44-74H548V257z M539.274,183
	L516,253.459V183H539.274z M510,252.655L486.747,183H510V252.655z M481.694,183l24.44,74H479v-74H481.694z M475,257h-27.502
	l24.44-74H475V257z M466.887,183L443,255.867V183H466.887z M437,250.247L414.358,183H437V250.247z M409.306,183l24.441,74H406v-74
	H409.306z M402,257h-26.89l24.44-74H402V257z M394.498,183L370,255.867V183H394.498z M364,250.247L341.97,183H364V250.247z
	 M336.918,183l24.44,74H333v-74H336.918z M328,257h-25.278l24.44-74H328V257z M322.11,183l-24.44,74H297v-74H322.11z M291,252.655
	L267.991,183H291V252.655z M262.939,183l24.44,74H260v-74H262.939z M255,257h-26.257l24.439-74H255V257z M248.131,183L225,253.459
	V183H248.131z M219,183v74h-47v-74H219z M172,642v-71h47v71H172z M225,574.68L248.353,642H225V574.68z M253.406,642l-24.859-71H255
	v71H253.406z M260,571h27.575l-24.859,71H260V571z M267.769,642L291,575.444V642H267.769z M297,571h0.474l24.859,71H297V571z
	 M327.385,642l-24.859-71H328v71H327.385z M333,571h28.554l-24.859,71H333V571z M341.748,642L364,577.736V642H341.748z M370,572.389
	L394.721,642H370V572.389z M399.773,642l-24.859-71H402v71H399.773z M406,571h27.942l-24.859,71H406V571z M414.136,642L437,577.736
	V642H414.136z M443,572.389L467.109,642H443V572.389z M472.162,642l-24.859-71H475v71H472.162z M479,571h27.331l-24.859,71H479V571z
	 M486.523,642L510,575.444V642H486.523z M516,574.68L539.497,642H516V574.68z M544.55,642l-24.859-71H548v71H544.55z M553,571
	h25.719l-24.859,71H553V571z M558.912,642L582,575.444V642H558.912z M588,642v-71h47v71H588z"/>
</svg>
